		<svg preserveAspectRatio="none" width="565" height="192" x="-95" y="-95" viewBox="-8.8 0 369.6 202" xmlns="http://www.w3.org/2000/svg" version="1.1" style="transform: translate(0,0)"><rect x="-8.8" y="0" width="369.6" height="202" style="fill: #fff; stroke: none"></rect><g transform="translate(0, 0)" style="fill: #000; stroke: none"><rect x="0" y="0" width="2" height="202"></rect><rect x="8" y="0" width="2" height="202"></rect><rect x="12" y="0" width="6" height="202"></rect><rect x="20" y="0" width="6" height="202"></rect><rect x="28" y="0" width="2" height="202"></rect><rect x="32" y="0" width="6" height="202"></rect><rect x="40" y="0" width="2" height="202"></rect><rect x="44" y="0" width="2" height="202"></rect><rect x="52" y="0" width="2" height="202"></rect><rect x="56" y="0" width="6" height="202"></rect><rect x="64" y="0" width="2" height="202"></rect><rect x="68" y="0" width="2" height="202"></rect><rect x="76" y="0" width="6" height="202"></rect><rect x="84" y="0" width="6" height="202"></rect><rect x="92" y="0" width="2" height="202"></rect><rect x="96" y="0" width="2" height="202"></rect><rect x="100" y="0" width="2" height="202"></rect><rect x="108" y="0" width="6" height="202"></rect><rect x="116" y="0" width="6" height="202"></rect><rect x="124" y="0" width="2" height="202"></rect><rect x="128" y="0" width="6" height="202"></rect><rect x="136" y="0" width="2" height="202"></rect><rect x="144" y="0" width="2" height="202"></rect><rect x="148" y="0" width="2" height="202"></rect><rect x="152" y="0" width="6" height="202"></rect><rect x="160" y="0" width="6" height="202"></rect><rect x="168" y="0" width="2" height="202"></rect><rect x="176" y="0" width="6" height="202"></rect><rect x="184" y="0" width="2" height="202"></rect><rect x="188" y="0" width="2" height="202"></rect><rect x="192" y="0" width="2" height="202"></rect><rect x="196" y="0" width="6" height="202"></rect><rect x="208" y="0" width="6" height="202"></rect><rect x="216" y="0" width="2" height="202"></rect><rect x="220" y="0" width="2" height="202"></rect><rect x="224" y="0" width="2" height="202"></rect><rect x="228" y="0" width="6" height="202"></rect><rect x="240" y="0" width="2" height="202"></rect><rect x="244" y="0" width="6" height="202"></rect><rect x="252" y="0" width="2" height="202"></rect><rect x="256" y="0" width="2" height="202"></rect><rect x="260" y="0" width="2" height="202"></rect><rect x="268" y="0" width="2" height="202"></rect><rect x="272" y="0" width="6" height="202"></rect><rect x="280" y="0" width="6" height="202"></rect><rect x="288" y="0" width="2" height="202"></rect><rect x="292" y="0" width="6" height="202"></rect><rect x="304" y="0" width="2" height="202"></rect><rect x="308" y="0" width="6" height="202"></rect><rect x="316" y="0" width="2" height="202"></rect><rect x="320" y="0" width="2" height="202"></rect><rect x="328" y="0" width="2" height="202"></rect><rect x="332" y="0" width="6" height="202"></rect><rect x="340" y="0" width="6" height="202"></rect><rect x="348" y="0" width="2" height="202"></rect></g></svg>